# Blender 4.3.2
# www.blender.org
mtllib exp_orb.mtl
o Cube
v 0.150000 0.150000 0.005000
v 0.150000 0.150000 -0.005000
v 0.150000 -0.150000 0.005000
v 0.150000 -0.150000 -0.005000
v -0.150000 0.150000 0.005000
v -0.150000 0.150000 -0.005000
v -0.150000 -0.150000 0.005000
v -0.150000 -0.150000 -0.005000
vn -0.0000 -0.0000 1.0000
vn -0.0000 -1.0000 -0.0000
vn -1.0000 -0.0000 -0.0000
vn -0.0000 -0.0000 -1.0000
vn 1.0000 -0.0000 -0.0000
vn -0.0000 1.0000 -0.0000
vt 1.000000 1.000000
vt 0.000000 1.000000
vt 0.000000 0.000000
vt 1.000000 0.000000
s 0
usemtl entities/experience_orb
f 1/1/1 5/2/1 7/3/1 3/4/1
f 4/3/2 3/3/2 7/3/2 8/3/2
f 8/3/3 7/3/3 5/3/3 6/3/3
f 6/2/4 2/1/4 4/4/4 8/3/4
f 2/3/5 1/3/5 3/3/5 4/3/5
f 6/3/6 5/3/6 1/3/6 2/3/6
